<?xml version="1.0" encoding="utf-8"?>
<svg xmlns="http://www.w3.org/2000/svg" width="1800" height="960" viewBox="-32.342 0 1629.233 918.602" xmlns:bx="https://boxy-svg.com" preserveAspectRatio="none"><defs><style>
      .title { font-family: "Times New Roman", serif; font-size: 22px; font-weight: bold; fill: #111; }
      .label { font-family: "Times New Roman", serif; font-size: 16px; fill: #111; }
      .small { font-family: "Times New Roman", serif; font-size: 14px; fill: #111; }
      .tiny { font-family: "Times New Roman", serif; font-size: 12px; fill: #111; }
      .box { fill: #ffffff; stroke: #2c3e50; stroke-width: 2; rx: 12; ry: 12; }
      .subbox { fill: #f7f9fc; stroke: #2c3e50; stroke-width: 1.6; rx: 10; ry: 10; }
      .thinbox { fill: #ffffff; stroke: #2c3e50; stroke-width: 1.5; rx: 8; ry: 8; }
      .oval { fill: #f7f9fc; stroke: #2c3e50; stroke-width: 1.8; }
      .tap { fill: #2c3e50; }
      .line { stroke: #2c3e50; stroke-width: 2; fill: none; }
      .dash { stroke: #2c3e50; stroke-width: 1.5; fill: none; stroke-dasharray: 5 4; }
      .r { fill:#ffebee; stroke:#d32f2f; stroke-width:0.8; }
      .g { fill:#e8f5e9; stroke:#2e7d32; stroke-width:0.8; }
      .b { fill:#e3f2fd; stroke:#1565c0; stroke-width:0.8; }
      .kernel { fill:#cfe2ff; stroke:#2c3e50; stroke-width:1; }
      .center { fill:#90caf9; stroke:#2c3e50; stroke-width:1; }
    </style><marker id="arrow" markerWidth="10" markerHeight="10" refX="10" refY="5" orient="auto" markerUnits="strokeWidth"><path d="M0,0 L10,5 L0,10 z" fill="#2c3e50"/></marker><bx:export><bx:file format="svg" path="multiscale_cnn_architecture_v3.svg"/></bx:export></defs><text x="805" y="45" text-anchor="middle" class="title" style="white-space: pre; font-size: 22px;">Multi-Scale CNN with EfficientNetB0 Backbone</text><rect x="155" y="140" width="240" height="640" class="box"/><text x="260.0" y="128" text-anchor="middle" class="label" style="white-space: pre;">EfficientNetB0 (Frozen)</text><text x="260.0" y="804" text-anchor="middle" class="small" style="white-space: pre;">Transfer Learning Backbone</text><line x1="157" y1="268" x2="397" y2="268" class="dash"/><text x="277" y="262" text-anchor="middle" class="small" style="white-space: pre; font-size: 14px;">C2</text><line x1="157" y1="396" x2="397" y2="396" class="dash"/><text x="277" y="390" text-anchor="middle" class="small" style="white-space: pre; font-size: 14px;">C3</text><line x1="157" y1="524" x2="397" y2="524" class="dash"/><text x="277" y="518" text-anchor="middle" class="small" style="white-space: pre; font-size: 14px;">C4</text><line x1="157" y1="671.2" x2="397" y2="671.2" class="dash"/><text x="277" y="665.2" text-anchor="middle" class="small" style="white-space: pre; font-size: 14px;">CT</text><rect x="39" y="390" width="90" height="90" class="thinbox"/><rect x="45" y="396" width="24" height="78" class="b"/><rect x="75" y="396" width="24" height="78" class="g"/><rect x="105" y="396" width="18" height="78" class="r"/><text x="95" y="502.0" text-anchor="middle" class="small" style="white-space: pre;">Input</text><text x="95" y="520.0" text-anchor="middle" class="tiny" style="white-space: pre;">H×W×3 (ICA-RGB)</text><line x1="143" y1="434" x2="131" y2="434" class="line" marker-end="url(#arrow)"/><circle cx="395" cy="268" r="5" class="tap"/><line x1="397" y1="268" x2="439" y2="220" class="line" marker-end="url(#arrow)"/><rect x="440" y="160" width="400" height="120" class="box"/><text x="640.0" y="152" text-anchor="middle" class="small" style="white-space: pre;">Multi-Scale Block (C2)</text><rect x="452" y="170" width="240" height="28" class="subbox"/><text x="462" y="189.0" text-anchor="start" class="small" style="white-space: pre;">SepConv 3×3 (d=1)</text><rect x="767" y="152" width="63" height="63" class="thinbox"/><line x1="776" y1="152" x2="776" y2="215" class="dash"/><line x1="767" y1="161" x2="830" y2="161" class="dash"/><line x1="785" y1="152" x2="785" y2="215" class="dash"/><line x1="767" y1="170" x2="830" y2="170" class="dash"/><line x1="794" y1="152" x2="794" y2="215" class="dash"/><line x1="767" y1="179" x2="830" y2="179" class="dash"/><line x1="803" y1="152" x2="803" y2="215" class="dash"/><line x1="767" y1="188" x2="830" y2="188" class="dash"/><line x1="812" y1="152" x2="812" y2="215" class="dash"/><line x1="767" y1="197" x2="830" y2="197" class="dash"/><line x1="821" y1="152" x2="821" y2="215" class="dash"/><line x1="767" y1="206" x2="830" y2="206" class="dash"/><rect x="786" y="171" width="7" height="7" class="kernel"/><rect x="795" y="171" width="7" height="7" class="kernel"/><rect x="804" y="171" width="7" height="7" class="kernel"/><rect x="786" y="180" width="7" height="7" class="kernel"/><rect x="795" y="180" width="7" height="7" class="kernel"/><rect x="804" y="180" width="7" height="7" class="kernel"/><rect x="786" y="189" width="7" height="7" class="kernel"/><rect x="795" y="189" width="7" height="7" class="kernel"/><rect x="804" y="189" width="7" height="7" class="kernel"/><rect x="796" y="181" width="5" height="5" class="center"/><rect x="452" y="204" width="240" height="28" class="subbox"/><text x="462" y="223.0" text-anchor="start" class="small" style="white-space: pre;">SepConv 3×3 (d=2)</text><rect x="767" y="186" width="63" height="63" class="thinbox"/><line x1="776" y1="186" x2="776" y2="249" class="dash"/><line x1="767" y1="195" x2="830" y2="195" class="dash"/><line x1="785" y1="186" x2="785" y2="249" class="dash"/><line x1="767" y1="204" x2="830" y2="204" class="dash"/><line x1="794" y1="186" x2="794" y2="249" class="dash"/><line x1="767" y1="213" x2="830" y2="213" class="dash"/><line x1="803" y1="186" x2="803" y2="249" class="dash"/><line x1="767" y1="222" x2="830" y2="222" class="dash"/><line x1="812" y1="186" x2="812" y2="249" class="dash"/><line x1="767" y1="231" x2="830" y2="231" class="dash"/><line x1="821" y1="186" x2="821" y2="249" class="dash"/><line x1="767" y1="240" x2="830" y2="240" class="dash"/><rect x="777" y="196" width="7" height="7" class="kernel"/><rect x="795" y="196" width="7" height="7" class="kernel"/><rect x="813" y="196" width="7" height="7" class="kernel"/><rect x="777" y="214" width="7" height="7" class="kernel"/><rect x="795" y="214" width="7" height="7" class="kernel"/><rect x="813" y="214" width="7" height="7" class="kernel"/><rect x="777" y="232" width="7" height="7" class="kernel"/><rect x="795" y="232" width="7" height="7" class="kernel"/><rect x="813" y="232" width="7" height="7" class="kernel"/><rect x="796" y="215" width="5" height="5" class="center"/><rect x="452" y="238" width="240" height="28" class="subbox"/><text x="462" y="257.0" text-anchor="start" class="small" style="white-space: pre;">SepConv 3×3 (d=3)</text><rect x="767" y="220" width="63" height="63" class="thinbox"/><line x1="776" y1="220" x2="776" y2="283" class="dash"/><line x1="767" y1="229" x2="830" y2="229" class="dash"/><line x1="785" y1="220" x2="785" y2="283" class="dash"/><line x1="767" y1="238" x2="830" y2="238" class="dash"/><line x1="794" y1="220" x2="794" y2="283" class="dash"/><line x1="767" y1="247" x2="830" y2="247" class="dash"/><line x1="803" y1="220" x2="803" y2="283" class="dash"/><line x1="767" y1="256" x2="830" y2="256" class="dash"/><line x1="812" y1="220" x2="812" y2="283" class="dash"/><line x1="767" y1="265" x2="830" y2="265" class="dash"/><line x1="821" y1="220" x2="821" y2="283" class="dash"/><line x1="767" y1="274" x2="830" y2="274" class="dash"/><rect x="768" y="221" width="7" height="7" class="kernel"/><rect x="795" y="221" width="7" height="7" class="kernel"/><rect x="822" y="221" width="7" height="7" class="kernel"/><rect x="768" y="248" width="7" height="7" class="kernel"/><rect x="795" y="248" width="7" height="7" class="kernel"/><rect x="822" y="248" width="7" height="7" class="kernel"/><rect x="768" y="275" width="7" height="7" class="kernel"/><rect x="795" y="275" width="7" height="7" class="kernel"/><rect x="822" y="275" width="7" height="7" class="kernel"/><rect x="796" y="249" width="5" height="5" class="center"/><line x1="840" y1="220.0" x2="858" y2="220.0" class="line" marker-end="url(#arrow)"/><rect x="868" y="202.0" width="92" height="36" class="subbox"/><text x="914" y="224.0" text-anchor="middle" class="small" style="white-space: pre;">1×1 Conv</text><line x1="960" y1="220.0" x2="960" y2="308" class="line" marker-end="url(#arrow)"/><ellipse cx="960" cy="338" rx="62" ry="26" class="oval"/><text x="960" y="343" text-anchor="middle" class="small" style="white-space: pre;">GAP 64</text><circle cx="394" cy="396" r="5" class="tap"/><line x1="396" y1="396" x2="438" y2="380" class="line" marker-end="url(#arrow)"/><rect x="440" y="320" width="400" height="120" class="box"/><text x="640.0" y="312" text-anchor="middle" class="small" style="white-space: pre;">Multi-Scale Block (C3)</text><rect x="452" y="330" width="240" height="28" class="subbox"/><text x="462" y="349.0" text-anchor="start" class="small" style="white-space: pre;">SepConv 3×3 (d=1)</text><rect x="767" y="312" width="63" height="63" class="thinbox"/><line x1="776" y1="312" x2="776" y2="375" class="dash"/><line x1="767" y1="321" x2="830" y2="321" class="dash"/><line x1="785" y1="312" x2="785" y2="375" class="dash"/><line x1="767" y1="330" x2="830" y2="330" class="dash"/><line x1="794" y1="312" x2="794" y2="375" class="dash"/><line x1="767" y1="339" x2="830" y2="339" class="dash"/><line x1="803" y1="312" x2="803" y2="375" class="dash"/><line x1="767" y1="348" x2="830" y2="348" class="dash"/><line x1="812" y1="312" x2="812" y2="375" class="dash"/><line x1="767" y1="357" x2="830" y2="357" class="dash"/><line x1="821" y1="312" x2="821" y2="375" class="dash"/><line x1="767" y1="366" x2="830" y2="366" class="dash"/><rect x="786" y="331" width="7" height="7" class="kernel"/><rect x="795" y="331" width="7" height="7" class="kernel"/><rect x="804" y="331" width="7" height="7" class="kernel"/><rect x="786" y="340" width="7" height="7" class="kernel"/><rect x="795" y="340" width="7" height="7" class="kernel"/><rect x="804" y="340" width="7" height="7" class="kernel"/><rect x="786" y="349" width="7" height="7" class="kernel"/><rect x="795" y="349" width="7" height="7" class="kernel"/><rect x="804" y="349" width="7" height="7" class="kernel"/><rect x="796" y="341" width="5" height="5" class="center"/><rect x="452" y="364" width="240" height="28" class="subbox"/><text x="462" y="383.0" text-anchor="start" class="small" style="white-space: pre;">SepConv 3×3 (d=2)</text><rect x="767" y="346" width="63" height="63" class="thinbox"/><line x1="776" y1="346" x2="776" y2="409" class="dash"/><line x1="767" y1="355" x2="830" y2="355" class="dash"/><line x1="785" y1="346" x2="785" y2="409" class="dash"/><line x1="767" y1="364" x2="830" y2="364" class="dash"/><line x1="794" y1="346" x2="794" y2="409" class="dash"/><line x1="767" y1="373" x2="830" y2="373" class="dash"/><line x1="803" y1="346" x2="803" y2="409" class="dash"/><line x1="767" y1="382" x2="830" y2="382" class="dash"/><line x1="812" y1="346" x2="812" y2="409" class="dash"/><line x1="767" y1="391" x2="830" y2="391" class="dash"/><line x1="821" y1="346" x2="821" y2="409" class="dash"/><line x1="767" y1="400" x2="830" y2="400" class="dash"/><rect x="777" y="356" width="7" height="7" class="kernel"/><rect x="795" y="356" width="7" height="7" class="kernel"/><rect x="813" y="356" width="7" height="7" class="kernel"/><rect x="777" y="374" width="7" height="7" class="kernel"/><rect x="795" y="374" width="7" height="7" class="kernel"/><rect x="813" y="374" width="7" height="7" class="kernel"/><rect x="777" y="392" width="7" height="7" class="kernel"/><rect x="795" y="392" width="7" height="7" class="kernel"/><rect x="813" y="392" width="7" height="7" class="kernel"/><rect x="796" y="375" width="5" height="5" class="center"/><rect x="452" y="398" width="240" height="28" class="subbox"/><text x="462" y="417.0" text-anchor="start" class="small" style="white-space: pre;">SepConv 3×3 (d=3)</text><rect x="767" y="380" width="63" height="63" class="thinbox"/><line x1="776" y1="380" x2="776" y2="443" class="dash"/><line x1="767" y1="389" x2="830" y2="389" class="dash"/><line x1="785" y1="380" x2="785" y2="443" class="dash"/><line x1="767" y1="398" x2="830" y2="398" class="dash"/><line x1="794" y1="380" x2="794" y2="443" class="dash"/><line x1="767" y1="407" x2="830" y2="407" class="dash"/><line x1="803" y1="380" x2="803" y2="443" class="dash"/><line x1="767" y1="416" x2="830" y2="416" class="dash"/><line x1="812" y1="380" x2="812" y2="443" class="dash"/><line x1="767" y1="425" x2="830" y2="425" class="dash"/><line x1="821" y1="380" x2="821" y2="443" class="dash"/><line x1="767" y1="434" x2="830" y2="434" class="dash"/><rect x="768" y="381" width="7" height="7" class="kernel"/><rect x="795" y="381" width="7" height="7" class="kernel"/><rect x="822" y="381" width="7" height="7" class="kernel"/><rect x="768" y="408" width="7" height="7" class="kernel"/><rect x="795" y="408" width="7" height="7" class="kernel"/><rect x="822" y="408" width="7" height="7" class="kernel"/><rect x="768" y="435" width="7" height="7" class="kernel"/><rect x="795" y="435" width="7" height="7" class="kernel"/><rect x="822" y="435" width="7" height="7" class="kernel"/><rect x="796" y="409" width="5" height="5" class="center"/><line x1="840" y1="380.0" x2="858" y2="380.0" class="line" marker-end="url(#arrow)"/><rect x="859" y="387" width="92" height="36" class="subbox"/><text x="905" y="409" text-anchor="middle" class="small" style="white-space: pre; font-size: 14px;">1×1 Conv</text><line x1="960" y1="363.829" x2="960" y2="468" class="line" marker-end="url(#arrow)" style=""/><ellipse cx="960" cy="498" rx="62" ry="26" class="oval"/><text x="960" y="503" text-anchor="middle" class="small" style="white-space: pre;">GAP 96</text><circle cx="396" cy="524" r="5" class="tap"/><line x1="396" y1="524" x2="438" y2="540" class="line" marker-end="url(#arrow)"/><rect x="440" y="480" width="400" height="120" class="box"/><text x="640.0" y="472" text-anchor="middle" class="small" style="white-space: pre;">Multi-Scale Block (C4)</text><rect x="452" y="490" width="240" height="28" class="subbox"/><text x="462" y="509.0" text-anchor="start" class="small" style="white-space: pre;">SepConv 3×3 (d=1)</text><rect x="767" y="472" width="63" height="63" class="thinbox"/><line x1="776" y1="472" x2="776" y2="535" class="dash"/><line x1="767" y1="481" x2="830" y2="481" class="dash"/><line x1="785" y1="472" x2="785" y2="535" class="dash"/><line x1="767" y1="490" x2="830" y2="490" class="dash"/><line x1="794" y1="472" x2="794" y2="535" class="dash"/><line x1="767" y1="499" x2="830" y2="499" class="dash"/><line x1="803" y1="472" x2="803" y2="535" class="dash"/><line x1="767" y1="508" x2="830" y2="508" class="dash"/><line x1="812" y1="472" x2="812" y2="535" class="dash"/><line x1="767" y1="517" x2="830" y2="517" class="dash"/><line x1="821" y1="472" x2="821" y2="535" class="dash"/><line x1="767" y1="526" x2="830" y2="526" class="dash"/><rect x="786" y="491" width="7" height="7" class="kernel"/><rect x="795" y="491" width="7" height="7" class="kernel"/><rect x="804" y="491" width="7" height="7" class="kernel"/><rect x="786" y="500" width="7" height="7" class="kernel"/><rect x="795" y="500" width="7" height="7" class="kernel"/><rect x="804" y="500" width="7" height="7" class="kernel"/><rect x="786" y="509" width="7" height="7" class="kernel"/><rect x="795" y="509" width="7" height="7" class="kernel"/><rect x="804" y="509" width="7" height="7" class="kernel"/><rect x="796" y="501" width="5" height="5" class="center"/><rect x="452" y="524" width="240" height="28" class="subbox"/><text x="462" y="543.0" text-anchor="start" class="small" style="white-space: pre;">SepConv 3×3 (d=2)</text><rect x="767" y="506" width="63" height="63" class="thinbox"/><line x1="776" y1="506" x2="776" y2="569" class="dash"/><line x1="767" y1="515" x2="830" y2="515" class="dash"/><line x1="785" y1="506" x2="785" y2="569" class="dash"/><line x1="767" y1="524" x2="830" y2="524" class="dash"/><line x1="794" y1="506" x2="794" y2="569" class="dash"/><line x1="767" y1="533" x2="830" y2="533" class="dash"/><line x1="803" y1="506" x2="803" y2="569" class="dash"/><line x1="767" y1="542" x2="830" y2="542" class="dash"/><line x1="812" y1="506" x2="812" y2="569" class="dash"/><line x1="767" y1="551" x2="830" y2="551" class="dash"/><line x1="821" y1="506" x2="821" y2="569" class="dash"/><line x1="767" y1="560" x2="830" y2="560" class="dash"/><rect x="777" y="516" width="7" height="7" class="kernel"/><rect x="795" y="516" width="7" height="7" class="kernel"/><rect x="813" y="516" width="7" height="7" class="kernel"/><rect x="777" y="534" width="7" height="7" class="kernel"/><rect x="795" y="534" width="7" height="7" class="kernel"/><rect x="813" y="534" width="7" height="7" class="kernel"/><rect x="777" y="552" width="7" height="7" class="kernel"/><rect x="795" y="552" width="7" height="7" class="kernel"/><rect x="813" y="552" width="7" height="7" class="kernel"/><rect x="796" y="535" width="5" height="5" class="center"/><rect x="452" y="558" width="240" height="28" class="subbox"/><text x="462" y="577.0" text-anchor="start" class="small" style="white-space: pre;">SepConv 3×3 (d=3)</text><rect x="767" y="540" width="63" height="63" class="thinbox"/><line x1="776" y1="540" x2="776" y2="603" class="dash"/><line x1="767" y1="549" x2="830" y2="549" class="dash"/><line x1="785" y1="540" x2="785" y2="603" class="dash"/><line x1="767" y1="558" x2="830" y2="558" class="dash"/><line x1="794" y1="540" x2="794" y2="603" class="dash"/><line x1="767" y1="567" x2="830" y2="567" class="dash"/><line x1="803" y1="540" x2="803" y2="603" class="dash"/><line x1="767" y1="576" x2="830" y2="576" class="dash"/><line x1="812" y1="540" x2="812" y2="603" class="dash"/><line x1="767" y1="585" x2="830" y2="585" class="dash"/><line x1="821" y1="540" x2="821" y2="603" class="dash"/><line x1="767" y1="594" x2="830" y2="594" class="dash"/><rect x="768" y="541" width="7" height="7" class="kernel"/><rect x="795" y="541" width="7" height="7" class="kernel"/><rect x="822" y="541" width="7" height="7" class="kernel"/><rect x="768" y="568" width="7" height="7" class="kernel"/><rect x="795" y="568" width="7" height="7" class="kernel"/><rect x="822" y="568" width="7" height="7" class="kernel"/><rect x="768" y="595" width="7" height="7" class="kernel"/><rect x="795" y="595" width="7" height="7" class="kernel"/><rect x="822" y="595" width="7" height="7" class="kernel"/><rect x="796" y="569" width="5" height="5" class="center"/><line x1="840" y1="540.0" x2="858" y2="540.0" class="line" marker-end="url(#arrow)"/><rect x="858" y="548" width="92" height="36" class="subbox"/><text x="904" y="570" text-anchor="middle" class="small" style="white-space: pre; font-size: 14px;">1×1 Conv</text><line x1="960" y1="522.535" x2="960" y2="628" class="line" marker-end="url(#arrow)" style=""/><ellipse cx="960" cy="658" rx="62" ry="26" class="oval"/><text x="960" y="663" text-anchor="middle" class="small" style="white-space: pre;">GAP 128</text><circle cx="396" cy="671.2" r="5" class="tap"/><line x1="397" y1="671.2" x2="439" y2="700" class="line" marker-end="url(#arrow)"/><rect x="440" y="640" width="400" height="120" class="box"/><text x="640.0" y="632" text-anchor="middle" class="small" style="white-space: pre;">Multi-Scale Block (CT)</text><rect x="452" y="650" width="240" height="28" class="subbox"/><text x="462" y="669.0" text-anchor="start" class="small" style="white-space: pre;">SepConv 3×3 (d=1)</text><rect x="767" y="632" width="63" height="63" class="thinbox"/><line x1="776" y1="632" x2="776" y2="695" class="dash"/><line x1="767" y1="641" x2="830" y2="641" class="dash"/><line x1="785" y1="632" x2="785" y2="695" class="dash"/><line x1="767" y1="650" x2="830" y2="650" class="dash"/><line x1="794" y1="632" x2="794" y2="695" class="dash"/><line x1="767" y1="659" x2="830" y2="659" class="dash"/><line x1="803" y1="632" x2="803" y2="695" class="dash"/><line x1="767" y1="668" x2="830" y2="668" class="dash"/><line x1="812" y1="632" x2="812" y2="695" class="dash"/><line x1="767" y1="677" x2="830" y2="677" class="dash"/><line x1="821" y1="632" x2="821" y2="695" class="dash"/><line x1="767" y1="686" x2="830" y2="686" class="dash"/><rect x="786" y="651" width="7" height="7" class="kernel"/><rect x="795" y="651" width="7" height="7" class="kernel"/><rect x="804" y="651" width="7" height="7" class="kernel"/><rect x="786" y="660" width="7" height="7" class="kernel"/><rect x="795" y="660" width="7" height="7" class="kernel"/><rect x="804" y="660" width="7" height="7" class="kernel"/><rect x="786" y="669" width="7" height="7" class="kernel"/><rect x="795" y="669" width="7" height="7" class="kernel"/><rect x="804" y="669" width="7" height="7" class="kernel"/><rect x="796" y="661" width="5" height="5" class="center"/><rect x="452" y="684" width="240" height="28" class="subbox"/><text x="462" y="703.0" text-anchor="start" class="small" style="white-space: pre;">SepConv 3×3 (d=2)</text><rect x="767" y="666" width="63" height="63" class="thinbox"/><line x1="776" y1="666" x2="776" y2="729" class="dash"/><line x1="767" y1="675" x2="830" y2="675" class="dash"/><line x1="785" y1="666" x2="785" y2="729" class="dash"/><line x1="767" y1="684" x2="830" y2="684" class="dash"/><line x1="794" y1="666" x2="794" y2="729" class="dash"/><line x1="767" y1="693" x2="830" y2="693" class="dash"/><line x1="803" y1="666" x2="803" y2="729" class="dash"/><line x1="767" y1="702" x2="830" y2="702" class="dash"/><line x1="812" y1="666" x2="812" y2="729" class="dash"/><line x1="767" y1="711" x2="830" y2="711" class="dash"/><line x1="821" y1="666" x2="821" y2="729" class="dash"/><line x1="767" y1="720" x2="830" y2="720" class="dash"/><rect x="777" y="676" width="7" height="7" class="kernel"/><rect x="795" y="676" width="7" height="7" class="kernel"/><rect x="813" y="676" width="7" height="7" class="kernel"/><rect x="777" y="694" width="7" height="7" class="kernel"/><rect x="795" y="694" width="7" height="7" class="kernel"/><rect x="813" y="694" width="7" height="7" class="kernel"/><rect x="777" y="712" width="7" height="7" class="kernel"/><rect x="795" y="712" width="7" height="7" class="kernel"/><rect x="813" y="712" width="7" height="7" class="kernel"/><rect x="796" y="695" width="5" height="5" class="center"/><rect x="452" y="718" width="240" height="28" class="subbox"/><text x="462" y="737.0" text-anchor="start" class="small" style="white-space: pre;">SepConv 3×3 (d=3)</text><rect x="767" y="700" width="63" height="63" class="thinbox"/><line x1="776" y1="700" x2="776" y2="763" class="dash"/><line x1="767" y1="709" x2="830" y2="709" class="dash"/><line x1="785" y1="700" x2="785" y2="763" class="dash"/><line x1="767" y1="718" x2="830" y2="718" class="dash"/><line x1="794" y1="700" x2="794" y2="763" class="dash"/><line x1="767" y1="727" x2="830" y2="727" class="dash"/><line x1="803" y1="700" x2="803" y2="763" class="dash"/><line x1="767" y1="736" x2="830" y2="736" class="dash"/><line x1="812" y1="700" x2="812" y2="763" class="dash"/><line x1="767" y1="745" x2="830" y2="745" class="dash"/><line x1="821" y1="700" x2="821" y2="763" class="dash"/><line x1="767" y1="754" x2="830" y2="754" class="dash"/><rect x="768" y="701" width="7" height="7" class="kernel"/><rect x="795" y="701" width="7" height="7" class="kernel"/><rect x="822" y="701" width="7" height="7" class="kernel"/><rect x="768" y="728" width="7" height="7" class="kernel"/><rect x="795" y="728" width="7" height="7" class="kernel"/><rect x="822" y="728" width="7" height="7" class="kernel"/><rect x="768" y="755" width="7" height="7" class="kernel"/><rect x="795" y="755" width="7" height="7" class="kernel"/><rect x="822" y="755" width="7" height="7" class="kernel"/><rect x="796" y="729" width="5" height="5" class="center"/><line x1="840" y1="700.0" x2="858" y2="700.0" class="line" marker-end="url(#arrow)"/><rect x="857" y="709" width="92" height="36" class="subbox"/><text x="903" y="731" text-anchor="middle" class="small" style="white-space: pre; font-size: 14px;">1×1 Conv</text><line x1="960" y1="686.416" x2="960" y2="788" class="line" marker-end="url(#arrow)" style=""/><ellipse cx="960" cy="818" rx="62" ry="26" class="oval"/><text x="960" y="823" text-anchor="middle" class="small" style="white-space: pre;">GAP 192</text><line x1="1016.47" y1="347.253" x2="1124.92" y2="571.205" class="line" marker-end="url(#arrow)" style="transform-origin: 1070.69px 459.228px;"/><line x1="1021.04" y1="497.362" x2="1120.96" y2="569.971" class="line" marker-end="url(#arrow)" style="transform-origin: 1071px 533.667px;"/><line x1="1023.936" y1="658.035" x2="1109.936" y2="569.368" class="line" marker-end="url(#arrow)"/><line x1="1016.16" y1="809.917" x2="1116.64" y2="569.879" class="line" marker-end="url(#arrow)" style="transform-origin: 1066.4px 689.898px;"/><rect x="1120" y="544" width="150" height="68" class="box"/><text x="1195" y="568.0" text-anchor="middle" class="small" style="white-space: pre;">Concat</text><text x="1195" y="590.0" text-anchor="middle" class="tiny" style="white-space: pre;">480-D</text><line x1="1286" y1="578" x2="1294" y2="578" class="line" marker-end="url(#arrow)"/><rect x="1298" y="548" width="220" height="60" class="box"/><text x="1406" y="572" text-anchor="middle" class="small" style="white-space: pre; font-size: 14px;">FC 256 + ReLU</text><text x="1404" y="592" text-anchor="middle" class="tiny" style="white-space: pre; font-size: 12px;">Dropout 0.35</text><line x1="1414.96" y1="619.109" x2="1415.681" y2="671.117" class="line" marker-end="url(#arrow)" style=""/><rect x="1303.54" y="684.023" width="222.097" height="57.938" class="box" style=""/><text x="1362.3" y="706.072" text-anchor="middle" class="small" style="white-space: pre; font-size: 14px;">FC K + Softmax</text><text x="1348.3" y="727.072" text-anchor="middle" class="tiny" style="white-space: pre; font-size: 12px;">Dropout 0.30</text><text x="1451.3" y="726.072" text-anchor="middle" class="small" style="white-space: pre; font-size: 14px;">→ Output y (K classes)</text><text x="900.0" y="932" text-anchor="middle" class="tiny" style="white-space: pre;">At each tap (C2–CT): three dilated SepConv branches (d=1,2,3) → 1×1 fusion → GAP(64,96,128,192) → Concat(480) → FC(256) → FC(K).</text></svg>